<mxfile host="app.diagrams.net" modified="2023-10-30T11:51:28.356Z" agent="Mozilla/5.0 (Windows NT 10.0; Win64; x64) AppleWebKit/537.36 (KHTML, like Gecko) Chrome/118.0.0.0 Safari/537.36" etag="MKFEyezj4jP1-KUfmoZk" version="22.0.8" type="github">
  <diagram name="Page-1" id="o0DM0_MiCbaJy6bLGhnn">
    <mxGraphModel dx="2420" dy="878" grid="1" gridSize="10" guides="1" tooltips="1" connect="1" arrows="1" fold="1" page="1" pageScale="1" pageWidth="827" pageHeight="1169" math="0" shadow="0">
      <root>
        <mxCell id="0" />
        <mxCell id="1" parent="0" />
        <mxCell id="vdYyiGhlFjjqDIYG_Mna-1" value="Member" style="rounded=0;whiteSpace=wrap;html=1;" parent="1" vertex="1">
          <mxGeometry x="340" y="340" width="120" height="60" as="geometry" />
        </mxCell>
        <mxCell id="vdYyiGhlFjjqDIYG_Mna-2" value="MemberId" style="ellipse;whiteSpace=wrap;html=1;fontStyle=4" parent="1" vertex="1">
          <mxGeometry x="200" y="310" width="120" height="80" as="geometry" />
        </mxCell>
        <mxCell id="vdYyiGhlFjjqDIYG_Mna-4" value="name" style="ellipse;whiteSpace=wrap;html=1;" parent="1" vertex="1">
          <mxGeometry x="280" y="250" width="120" height="80" as="geometry" />
        </mxCell>
        <mxCell id="vdYyiGhlFjjqDIYG_Mna-5" value="home address" style="ellipse;whiteSpace=wrap;html=1;" parent="1" vertex="1">
          <mxGeometry x="400" y="250" width="120" height="80" as="geometry" />
        </mxCell>
        <mxCell id="vdYyiGhlFjjqDIYG_Mna-6" value="phone numbers" style="ellipse;whiteSpace=wrap;html=1;sketch=1;curveFitting=1;jiggle=2;" parent="1" vertex="1">
          <mxGeometry x="480" y="310" width="120" height="80" as="geometry" />
        </mxCell>
        <mxCell id="vdYyiGhlFjjqDIYG_Mna-7" value="Seller" style="rounded=0;whiteSpace=wrap;html=1;" parent="1" vertex="1">
          <mxGeometry x="200" y="530" width="120" height="60" as="geometry" />
        </mxCell>
        <mxCell id="vdYyiGhlFjjqDIYG_Mna-8" value="Buyer" style="rounded=0;whiteSpace=wrap;html=1;" parent="1" vertex="1">
          <mxGeometry x="490" y="530" width="120" height="60" as="geometry" />
        </mxCell>
        <mxCell id="vdYyiGhlFjjqDIYG_Mna-9" value="" style="endArrow=none;html=1;rounded=0;" parent="1" source="vdYyiGhlFjjqDIYG_Mna-7" target="vdYyiGhlFjjqDIYG_Mna-10" edge="1">
          <mxGeometry width="50" height="50" relative="1" as="geometry">
            <mxPoint x="370" y="570" as="sourcePoint" />
            <mxPoint x="420" y="520" as="targetPoint" />
          </mxGeometry>
        </mxCell>
        <mxCell id="vdYyiGhlFjjqDIYG_Mna-10" value="O" style="ellipse;whiteSpace=wrap;html=1;aspect=fixed;" parent="1" vertex="1">
          <mxGeometry x="384" y="470" width="30" height="30" as="geometry" />
        </mxCell>
        <mxCell id="vdYyiGhlFjjqDIYG_Mna-11" value="" style="endArrow=none;html=1;rounded=0;exitX=1;exitY=0.5;exitDx=0;exitDy=0;" parent="1" source="vdYyiGhlFjjqDIYG_Mna-10" target="vdYyiGhlFjjqDIYG_Mna-8" edge="1">
          <mxGeometry width="50" height="50" relative="1" as="geometry">
            <mxPoint x="370" y="570" as="sourcePoint" />
            <mxPoint x="420" y="520" as="targetPoint" />
          </mxGeometry>
        </mxCell>
        <mxCell id="vdYyiGhlFjjqDIYG_Mna-12" value="" style="endArrow=none;html=1;rounded=0;entryX=0.5;entryY=0;entryDx=0;entryDy=0;shape=link;" parent="1" source="vdYyiGhlFjjqDIYG_Mna-1" target="vdYyiGhlFjjqDIYG_Mna-10" edge="1">
          <mxGeometry width="50" height="50" relative="1" as="geometry">
            <mxPoint x="424" y="495" as="sourcePoint" />
            <mxPoint x="506" y="540" as="targetPoint" />
          </mxGeometry>
        </mxCell>
        <mxCell id="vdYyiGhlFjjqDIYG_Mna-13" value="delivery address" style="ellipse;whiteSpace=wrap;html=1;" parent="1" vertex="1">
          <mxGeometry x="503" y="460" width="100" height="50" as="geometry" />
        </mxCell>
        <mxCell id="vdYyiGhlFjjqDIYG_Mna-14" value="bank acc number" style="ellipse;whiteSpace=wrap;html=1;" parent="1" vertex="1">
          <mxGeometry x="90" y="500" width="100" height="50" as="geometry" />
        </mxCell>
        <mxCell id="vdYyiGhlFjjqDIYG_Mna-15" value="bank name" style="ellipse;whiteSpace=wrap;html=1;" parent="1" vertex="1">
          <mxGeometry x="90" y="560" width="100" height="50" as="geometry" />
        </mxCell>
        <mxCell id="vdYyiGhlFjjqDIYG_Mna-16" value="Item for sale" style="rounded=0;whiteSpace=wrap;html=1;" parent="1" vertex="1">
          <mxGeometry x="200" y="730" width="120" height="60" as="geometry" />
        </mxCell>
        <mxCell id="vdYyiGhlFjjqDIYG_Mna-17" value="&lt;u&gt;UniqueID&lt;/u&gt;" style="ellipse;whiteSpace=wrap;html=1;" parent="1" vertex="1">
          <mxGeometry x="60" y="730" width="100" height="50" as="geometry" />
        </mxCell>
        <mxCell id="vdYyiGhlFjjqDIYG_Mna-18" value="name" style="ellipse;whiteSpace=wrap;html=1;" parent="1" vertex="1">
          <mxGeometry x="100" y="680" width="100" height="50" as="geometry" />
        </mxCell>
        <mxCell id="vdYyiGhlFjjqDIYG_Mna-19" value="end date" style="ellipse;whiteSpace=wrap;html=1;" parent="1" vertex="1">
          <mxGeometry x="90" y="780" width="100" height="50" as="geometry" />
        </mxCell>
        <mxCell id="vdYyiGhlFjjqDIYG_Mna-20" value="starting price" style="ellipse;whiteSpace=wrap;html=1;" parent="1" vertex="1">
          <mxGeometry x="-10" y="780" width="100" height="50" as="geometry" />
        </mxCell>
        <mxCell id="vdYyiGhlFjjqDIYG_Mna-21" value="final price" style="ellipse;whiteSpace=wrap;html=1;" parent="1" vertex="1">
          <mxGeometry y="685" width="100" height="50" as="geometry" />
        </mxCell>
        <mxCell id="vdYyiGhlFjjqDIYG_Mna-22" value="start date" style="ellipse;whiteSpace=wrap;html=1;" parent="1" vertex="1">
          <mxGeometry x="-40" y="730" width="100" height="50" as="geometry" />
        </mxCell>
        <mxCell id="vdYyiGhlFjjqDIYG_Mna-24" value="Subcategory" style="rounded=0;whiteSpace=wrap;html=1;" parent="1" vertex="1">
          <mxGeometry x="210" y="1060" width="120" height="60" as="geometry" />
        </mxCell>
        <mxCell id="vdYyiGhlFjjqDIYG_Mna-26" value="&lt;u&gt;SubID&lt;/u&gt;" style="ellipse;whiteSpace=wrap;html=1;" parent="1" vertex="1">
          <mxGeometry x="100" y="1090" width="100" height="50" as="geometry" />
        </mxCell>
        <mxCell id="vdYyiGhlFjjqDIYG_Mna-27" value="name" style="ellipse;whiteSpace=wrap;html=1;" parent="1" vertex="1">
          <mxGeometry x="100" y="1040" width="100" height="50" as="geometry" />
        </mxCell>
        <mxCell id="vdYyiGhlFjjqDIYG_Mna-28" value="Category" style="rounded=0;whiteSpace=wrap;html=1;" parent="1" vertex="1">
          <mxGeometry x="210" y="920" width="120" height="60" as="geometry" />
        </mxCell>
        <mxCell id="vdYyiGhlFjjqDIYG_Mna-29" value="name" style="ellipse;whiteSpace=wrap;html=1;" parent="1" vertex="1">
          <mxGeometry x="100" y="900" width="100" height="50" as="geometry" />
        </mxCell>
        <mxCell id="vdYyiGhlFjjqDIYG_Mna-30" value="&lt;u&gt;CatId&lt;/u&gt;" style="ellipse;whiteSpace=wrap;html=1;" parent="1" vertex="1">
          <mxGeometry x="100" y="950" width="100" height="50" as="geometry" />
        </mxCell>
        <mxCell id="vdYyiGhlFjjqDIYG_Mna-32" value="Bid" style="rounded=0;whiteSpace=wrap;html=1;" parent="1" vertex="1">
          <mxGeometry x="790" y="525" width="120" height="60" as="geometry" />
        </mxCell>
        <mxCell id="vdYyiGhlFjjqDIYG_Mna-33" value="price" style="ellipse;whiteSpace=wrap;html=1;" parent="1" vertex="1">
          <mxGeometry x="920" y="480" width="100" height="50" as="geometry" />
        </mxCell>
        <mxCell id="vdYyiGhlFjjqDIYG_Mna-34" value="time" style="ellipse;whiteSpace=wrap;html=1;" parent="1" vertex="1">
          <mxGeometry x="950" y="530" width="100" height="50" as="geometry" />
        </mxCell>
        <mxCell id="vdYyiGhlFjjqDIYG_Mna-35" value="date" style="ellipse;whiteSpace=wrap;html=1;" parent="1" vertex="1">
          <mxGeometry x="920" y="580" width="100" height="50" as="geometry" />
        </mxCell>
        <mxCell id="vdYyiGhlFjjqDIYG_Mna-37" value="Auction" style="rounded=0;whiteSpace=wrap;html=1;" parent="1" vertex="1">
          <mxGeometry x="797" y="735" width="120" height="60" as="geometry" />
        </mxCell>
        <mxCell id="vdYyiGhlFjjqDIYG_Mna-38" value="highest bid" style="ellipse;whiteSpace=wrap;html=1;" parent="1" vertex="1">
          <mxGeometry x="937" y="930" width="90" height="50" as="geometry" />
        </mxCell>
        <mxCell id="vdYyiGhlFjjqDIYG_Mna-39" value="transaction" style="rounded=0;whiteSpace=wrap;html=1;" parent="1" vertex="1">
          <mxGeometry x="790" y="920" width="120" height="60" as="geometry" />
        </mxCell>
        <mxCell id="vdYyiGhlFjjqDIYG_Mna-40" value="date" style="ellipse;whiteSpace=wrap;html=1;" parent="1" vertex="1">
          <mxGeometry x="930" y="990" width="100" height="50" as="geometry" />
        </mxCell>
        <mxCell id="vdYyiGhlFjjqDIYG_Mna-41" value="status" style="ellipse;whiteSpace=wrap;html=1;" parent="1" vertex="1">
          <mxGeometry x="905" y="840" width="100" height="50" as="geometry" />
        </mxCell>
        <mxCell id="vdYyiGhlFjjqDIYG_Mna-42" value="rating" style="ellipse;whiteSpace=wrap;html=1;" parent="1" vertex="1">
          <mxGeometry x="830" y="990" width="100" height="50" as="geometry" />
        </mxCell>
        <mxCell id="vdYyiGhlFjjqDIYG_Mna-43" value="comment" style="ellipse;whiteSpace=wrap;html=1;" parent="1" vertex="1">
          <mxGeometry x="730" y="990" width="100" height="50" as="geometry" />
        </mxCell>
        <mxCell id="vdYyiGhlFjjqDIYG_Mna-44" value="" style="rhombus;whiteSpace=wrap;html=1;rotation=-87;" parent="1" vertex="1">
          <mxGeometry x="680" y="535" width="50" height="50" as="geometry" />
        </mxCell>
        <mxCell id="vdYyiGhlFjjqDIYG_Mna-45" value="" style="endArrow=none;html=1;rounded=0;entryX=0.5;entryY=0;entryDx=0;entryDy=0;" parent="1" source="vdYyiGhlFjjqDIYG_Mna-8" target="vdYyiGhlFjjqDIYG_Mna-44" edge="1">
          <mxGeometry width="50" height="50" relative="1" as="geometry">
            <mxPoint x="424" y="495" as="sourcePoint" />
            <mxPoint x="506" y="540" as="targetPoint" />
          </mxGeometry>
        </mxCell>
        <mxCell id="vdYyiGhlFjjqDIYG_Mna-46" value="" style="endArrow=none;html=1;rounded=0;exitX=0.5;exitY=1;exitDx=0;exitDy=0;shape=link;" parent="1" source="vdYyiGhlFjjqDIYG_Mna-44" target="vdYyiGhlFjjqDIYG_Mna-32" edge="1">
          <mxGeometry width="50" height="50" relative="1" as="geometry">
            <mxPoint x="560" y="600" as="sourcePoint" />
            <mxPoint x="560" y="660" as="targetPoint" />
            <Array as="points" />
          </mxGeometry>
        </mxCell>
        <mxCell id="vdYyiGhlFjjqDIYG_Mna-47" value="" style="rhombus;whiteSpace=wrap;html=1;" parent="1" vertex="1">
          <mxGeometry x="832" y="840" width="50" height="50" as="geometry" />
        </mxCell>
        <mxCell id="vdYyiGhlFjjqDIYG_Mna-48" value="" style="endArrow=none;html=1;rounded=0;exitX=0.5;exitY=1;exitDx=0;exitDy=0;entryX=0.5;entryY=0;entryDx=0;entryDy=0;" parent="1" source="vdYyiGhlFjjqDIYG_Mna-37" target="vdYyiGhlFjjqDIYG_Mna-47" edge="1">
          <mxGeometry width="50" height="50" relative="1" as="geometry">
            <mxPoint x="867" y="600" as="sourcePoint" />
            <mxPoint x="867" y="660" as="targetPoint" />
          </mxGeometry>
        </mxCell>
        <mxCell id="vdYyiGhlFjjqDIYG_Mna-49" value="" style="endArrow=none;html=1;rounded=0;shape=link;" parent="1" source="vdYyiGhlFjjqDIYG_Mna-39" target="vdYyiGhlFjjqDIYG_Mna-47" edge="1">
          <mxGeometry width="50" height="50" relative="1" as="geometry">
            <mxPoint x="867" y="805" as="sourcePoint" />
            <mxPoint x="857" y="880" as="targetPoint" />
          </mxGeometry>
        </mxCell>
        <mxCell id="vdYyiGhlFjjqDIYG_Mna-50" value="" style="endArrow=none;html=1;rounded=0;" parent="1" source="vdYyiGhlFjjqDIYG_Mna-37" target="vdYyiGhlFjjqDIYG_Mna-52" edge="1">
          <mxGeometry width="50" height="50" relative="1" as="geometry">
            <mxPoint x="863" y="930" as="sourcePoint" />
            <mxPoint x="867" y="890" as="targetPoint" />
          </mxGeometry>
        </mxCell>
        <mxCell id="vdYyiGhlFjjqDIYG_Mna-51" value="" style="endArrow=none;html=1;rounded=0;entryX=0.5;entryY=1;entryDx=0;entryDy=0;exitX=0.5;exitY=0;exitDx=0;exitDy=0;" parent="1" source="vdYyiGhlFjjqDIYG_Mna-57" target="vdYyiGhlFjjqDIYG_Mna-7" edge="1">
          <mxGeometry width="50" height="50" relative="1" as="geometry">
            <mxPoint x="-160" y="435" as="sourcePoint" />
            <mxPoint x="358" y="700" as="targetPoint" />
          </mxGeometry>
        </mxCell>
        <mxCell id="vdYyiGhlFjjqDIYG_Mna-52" value="" style="rhombus;whiteSpace=wrap;html=1;" parent="1" vertex="1">
          <mxGeometry x="830" y="640" width="50" height="50" as="geometry" />
        </mxCell>
        <mxCell id="vdYyiGhlFjjqDIYG_Mna-54" value="" style="endArrow=none;html=1;rounded=0;shape=link;" parent="1" source="vdYyiGhlFjjqDIYG_Mna-59" target="vdYyiGhlFjjqDIYG_Mna-28" edge="1">
          <mxGeometry width="50" height="50" relative="1" as="geometry">
            <mxPoint x="270" y="740" as="sourcePoint" />
            <mxPoint x="280" y="830" as="targetPoint" />
          </mxGeometry>
        </mxCell>
        <mxCell id="vdYyiGhlFjjqDIYG_Mna-55" value="" style="endArrow=none;html=1;rounded=0;exitX=0.5;exitY=1;exitDx=0;exitDy=0;shape=link;" parent="1" source="vdYyiGhlFjjqDIYG_Mna-61" target="vdYyiGhlFjjqDIYG_Mna-24" edge="1">
          <mxGeometry width="50" height="50" relative="1" as="geometry">
            <mxPoint x="272" y="800" as="sourcePoint" />
            <mxPoint x="278" y="930" as="targetPoint" />
          </mxGeometry>
        </mxCell>
        <mxCell id="vdYyiGhlFjjqDIYG_Mna-56" value="" style="endArrow=none;html=1;rounded=0;exitX=1;exitY=0.5;exitDx=0;exitDy=0;shape=link;" parent="1" source="vdYyiGhlFjjqDIYG_Mna-87" target="vdYyiGhlFjjqDIYG_Mna-37" edge="1">
          <mxGeometry width="50" height="50" relative="1" as="geometry">
            <mxPoint x="280" y="990" as="sourcePoint" />
            <mxPoint x="280" y="1070" as="targetPoint" />
          </mxGeometry>
        </mxCell>
        <mxCell id="vdYyiGhlFjjqDIYG_Mna-58" value="" style="endArrow=none;html=1;rounded=0;entryX=0.5;entryY=1;entryDx=0;entryDy=0;exitX=0.5;exitY=0;exitDx=0;exitDy=0;shape=link;" parent="1" source="vdYyiGhlFjjqDIYG_Mna-16" target="vdYyiGhlFjjqDIYG_Mna-57" edge="1">
          <mxGeometry width="50" height="50" relative="1" as="geometry">
            <mxPoint x="260" y="730" as="sourcePoint" />
            <mxPoint x="260" y="590" as="targetPoint" />
          </mxGeometry>
        </mxCell>
        <mxCell id="vdYyiGhlFjjqDIYG_Mna-57" value="" style="rhombus;whiteSpace=wrap;html=1;" parent="1" vertex="1">
          <mxGeometry x="235" y="635" width="50" height="50" as="geometry" />
        </mxCell>
        <mxCell id="vdYyiGhlFjjqDIYG_Mna-60" value="" style="endArrow=none;html=1;rounded=0;shape=link;" parent="1" source="vdYyiGhlFjjqDIYG_Mna-16" target="vdYyiGhlFjjqDIYG_Mna-59" edge="1">
          <mxGeometry width="50" height="50" relative="1" as="geometry">
            <mxPoint x="262" y="790" as="sourcePoint" />
            <mxPoint x="268" y="920" as="targetPoint" />
          </mxGeometry>
        </mxCell>
        <mxCell id="vdYyiGhlFjjqDIYG_Mna-59" value="" style="rhombus;whiteSpace=wrap;html=1;" parent="1" vertex="1">
          <mxGeometry x="245" y="840" width="50" height="50" as="geometry" />
        </mxCell>
        <mxCell id="vdYyiGhlFjjqDIYG_Mna-62" value="" style="endArrow=none;html=1;rounded=0;exitX=0.5;exitY=1;exitDx=0;exitDy=0;" parent="1" source="vdYyiGhlFjjqDIYG_Mna-28" target="vdYyiGhlFjjqDIYG_Mna-61" edge="1">
          <mxGeometry width="50" height="50" relative="1" as="geometry">
            <mxPoint x="270" y="980" as="sourcePoint" />
            <mxPoint x="270" y="1060" as="targetPoint" />
          </mxGeometry>
        </mxCell>
        <mxCell id="vdYyiGhlFjjqDIYG_Mna-61" value="" style="rhombus;whiteSpace=wrap;html=1;" parent="1" vertex="1">
          <mxGeometry x="245" y="1000" width="50" height="50" as="geometry" />
        </mxCell>
        <mxCell id="vdYyiGhlFjjqDIYG_Mna-64" value="" style="endArrow=none;html=1;rounded=0;exitX=0;exitY=0.5;exitDx=0;exitDy=0;" parent="1" source="vdYyiGhlFjjqDIYG_Mna-7" target="vdYyiGhlFjjqDIYG_Mna-14" edge="1">
          <mxGeometry width="50" height="50" relative="1" as="geometry">
            <mxPoint x="326" y="540" as="sourcePoint" />
            <mxPoint x="396" y="502" as="targetPoint" />
          </mxGeometry>
        </mxCell>
        <mxCell id="vdYyiGhlFjjqDIYG_Mna-65" value="" style="endArrow=none;html=1;rounded=0;exitX=0;exitY=0.5;exitDx=0;exitDy=0;" parent="1" source="vdYyiGhlFjjqDIYG_Mna-7" target="vdYyiGhlFjjqDIYG_Mna-15" edge="1">
          <mxGeometry width="50" height="50" relative="1" as="geometry">
            <mxPoint x="210" y="570" as="sourcePoint" />
            <mxPoint x="183" y="554" as="targetPoint" />
          </mxGeometry>
        </mxCell>
        <mxCell id="vdYyiGhlFjjqDIYG_Mna-66" value="" style="endArrow=none;html=1;rounded=0;" parent="1" source="vdYyiGhlFjjqDIYG_Mna-18" target="vdYyiGhlFjjqDIYG_Mna-16" edge="1">
          <mxGeometry width="50" height="50" relative="1" as="geometry">
            <mxPoint x="210" y="570" as="sourcePoint" />
            <mxPoint x="189" y="579" as="targetPoint" />
          </mxGeometry>
        </mxCell>
        <mxCell id="vdYyiGhlFjjqDIYG_Mna-67" value="" style="endArrow=none;html=1;rounded=0;" parent="1" source="vdYyiGhlFjjqDIYG_Mna-16" target="vdYyiGhlFjjqDIYG_Mna-17" edge="1">
          <mxGeometry width="50" height="50" relative="1" as="geometry">
            <mxPoint x="196" y="732" as="sourcePoint" />
            <mxPoint x="210" y="740" as="targetPoint" />
          </mxGeometry>
        </mxCell>
        <mxCell id="vdYyiGhlFjjqDIYG_Mna-68" value="" style="endArrow=none;html=1;rounded=0;exitX=1;exitY=0;exitDx=0;exitDy=0;" parent="1" source="vdYyiGhlFjjqDIYG_Mna-19" target="vdYyiGhlFjjqDIYG_Mna-16" edge="1">
          <mxGeometry width="50" height="50" relative="1" as="geometry">
            <mxPoint x="210" y="768" as="sourcePoint" />
            <mxPoint x="170" y="766" as="targetPoint" />
          </mxGeometry>
        </mxCell>
        <mxCell id="vdYyiGhlFjjqDIYG_Mna-69" value="" style="endArrow=none;html=1;rounded=0;" parent="1" source="vdYyiGhlFjjqDIYG_Mna-1" target="vdYyiGhlFjjqDIYG_Mna-2" edge="1">
          <mxGeometry width="50" height="50" relative="1" as="geometry">
            <mxPoint x="186" y="798" as="sourcePoint" />
            <mxPoint x="210" y="790" as="targetPoint" />
          </mxGeometry>
        </mxCell>
        <mxCell id="vdYyiGhlFjjqDIYG_Mna-70" value="" style="endArrow=none;html=1;rounded=0;entryX=0.25;entryY=0;entryDx=0;entryDy=0;" parent="1" source="vdYyiGhlFjjqDIYG_Mna-4" target="vdYyiGhlFjjqDIYG_Mna-1" edge="1">
          <mxGeometry width="50" height="50" relative="1" as="geometry">
            <mxPoint x="350" y="371" as="sourcePoint" />
            <mxPoint x="329" y="368" as="targetPoint" />
          </mxGeometry>
        </mxCell>
        <mxCell id="vdYyiGhlFjjqDIYG_Mna-71" value="" style="endArrow=none;html=1;rounded=0;" parent="1" source="vdYyiGhlFjjqDIYG_Mna-5" target="vdYyiGhlFjjqDIYG_Mna-1" edge="1">
          <mxGeometry width="50" height="50" relative="1" as="geometry">
            <mxPoint x="372" y="337" as="sourcePoint" />
            <mxPoint x="380" y="350" as="targetPoint" />
          </mxGeometry>
        </mxCell>
        <mxCell id="vdYyiGhlFjjqDIYG_Mna-72" value="" style="endArrow=none;html=1;rounded=0;" parent="1" source="vdYyiGhlFjjqDIYG_Mna-6" target="vdYyiGhlFjjqDIYG_Mna-1" edge="1">
          <mxGeometry width="50" height="50" relative="1" as="geometry">
            <mxPoint x="443" y="336" as="sourcePoint" />
            <mxPoint x="432" y="350" as="targetPoint" />
          </mxGeometry>
        </mxCell>
        <mxCell id="vdYyiGhlFjjqDIYG_Mna-73" value="" style="endArrow=none;html=1;rounded=0;" parent="1" source="vdYyiGhlFjjqDIYG_Mna-8" target="vdYyiGhlFjjqDIYG_Mna-13" edge="1">
          <mxGeometry width="50" height="50" relative="1" as="geometry">
            <mxPoint x="491" y="368" as="sourcePoint" />
            <mxPoint x="470" y="371" as="targetPoint" />
          </mxGeometry>
        </mxCell>
        <mxCell id="vdYyiGhlFjjqDIYG_Mna-74" value="" style="endArrow=none;html=1;rounded=0;entryX=0;entryY=0.5;entryDx=0;entryDy=0;" parent="1" source="vdYyiGhlFjjqDIYG_Mna-32" target="vdYyiGhlFjjqDIYG_Mna-33" edge="1">
          <mxGeometry width="50" height="50" relative="1" as="geometry">
            <mxPoint x="670" y="349" as="sourcePoint" />
            <mxPoint x="704" y="343" as="targetPoint" />
          </mxGeometry>
        </mxCell>
        <mxCell id="vdYyiGhlFjjqDIYG_Mna-75" value="" style="endArrow=none;html=1;rounded=0;" parent="1" source="vdYyiGhlFjjqDIYG_Mna-32" target="vdYyiGhlFjjqDIYG_Mna-34" edge="1">
          <mxGeometry width="50" height="50" relative="1" as="geometry">
            <mxPoint x="890" y="550" as="sourcePoint" />
            <mxPoint x="930" y="515" as="targetPoint" />
          </mxGeometry>
        </mxCell>
        <mxCell id="vdYyiGhlFjjqDIYG_Mna-76" value="" style="endArrow=none;html=1;rounded=0;" parent="1" source="vdYyiGhlFjjqDIYG_Mna-32" target="vdYyiGhlFjjqDIYG_Mna-35" edge="1">
          <mxGeometry width="50" height="50" relative="1" as="geometry">
            <mxPoint x="920" y="565" as="sourcePoint" />
            <mxPoint x="960" y="565" as="targetPoint" />
          </mxGeometry>
        </mxCell>
        <mxCell id="vdYyiGhlFjjqDIYG_Mna-77" value="" style="endArrow=none;html=1;rounded=0;" parent="1" source="vdYyiGhlFjjqDIYG_Mna-39" target="vdYyiGhlFjjqDIYG_Mna-38" edge="1">
          <mxGeometry width="50" height="50" relative="1" as="geometry">
            <mxPoint x="1177" y="800" as="sourcePoint" />
            <mxPoint x="1199" y="809" as="targetPoint" />
          </mxGeometry>
        </mxCell>
        <mxCell id="vdYyiGhlFjjqDIYG_Mna-78" value="" style="endArrow=none;html=1;rounded=0;" parent="1" source="vdYyiGhlFjjqDIYG_Mna-47" target="vdYyiGhlFjjqDIYG_Mna-41" edge="1">
          <mxGeometry width="50" height="50" relative="1" as="geometry">
            <mxPoint x="920" y="944" as="sourcePoint" />
            <mxPoint x="949" y="936" as="targetPoint" />
          </mxGeometry>
        </mxCell>
        <mxCell id="vdYyiGhlFjjqDIYG_Mna-79" value="" style="endArrow=none;html=1;rounded=0;" parent="1" source="vdYyiGhlFjjqDIYG_Mna-39" target="vdYyiGhlFjjqDIYG_Mna-40" edge="1">
          <mxGeometry width="50" height="50" relative="1" as="geometry">
            <mxPoint x="920" y="967" as="sourcePoint" />
            <mxPoint x="941" y="970" as="targetPoint" />
          </mxGeometry>
        </mxCell>
        <mxCell id="vdYyiGhlFjjqDIYG_Mna-80" value="" style="endArrow=none;html=1;rounded=0;exitX=0.75;exitY=1;exitDx=0;exitDy=0;" parent="1" source="vdYyiGhlFjjqDIYG_Mna-39" target="vdYyiGhlFjjqDIYG_Mna-42" edge="1">
          <mxGeometry width="50" height="50" relative="1" as="geometry">
            <mxPoint x="920" y="990" as="sourcePoint" />
            <mxPoint x="954" y="1007" as="targetPoint" />
          </mxGeometry>
        </mxCell>
        <mxCell id="vdYyiGhlFjjqDIYG_Mna-81" value="" style="endArrow=none;html=1;rounded=0;" parent="1" source="vdYyiGhlFjjqDIYG_Mna-39" target="vdYyiGhlFjjqDIYG_Mna-43" edge="1">
          <mxGeometry width="50" height="50" relative="1" as="geometry">
            <mxPoint x="890" y="990" as="sourcePoint" />
            <mxPoint x="890" y="1000" as="targetPoint" />
          </mxGeometry>
        </mxCell>
        <mxCell id="vdYyiGhlFjjqDIYG_Mna-82" value="" style="endArrow=none;html=1;rounded=0;" parent="1" source="vdYyiGhlFjjqDIYG_Mna-28" target="vdYyiGhlFjjqDIYG_Mna-29" edge="1">
          <mxGeometry width="50" height="50" relative="1" as="geometry">
            <mxPoint x="521" y="990" as="sourcePoint" />
            <mxPoint x="507" y="1003" as="targetPoint" />
          </mxGeometry>
        </mxCell>
        <mxCell id="vdYyiGhlFjjqDIYG_Mna-83" value="" style="endArrow=none;html=1;rounded=0;exitX=1;exitY=1;exitDx=0;exitDy=0;" parent="1" source="vdYyiGhlFjjqDIYG_Mna-30" target="vdYyiGhlFjjqDIYG_Mna-28" edge="1">
          <mxGeometry width="50" height="50" relative="1" as="geometry">
            <mxPoint x="220" y="947" as="sourcePoint" />
            <mxPoint x="206" y="944" as="targetPoint" />
          </mxGeometry>
        </mxCell>
        <mxCell id="vdYyiGhlFjjqDIYG_Mna-84" value="" style="endArrow=none;html=1;rounded=0;entryX=1;entryY=1;entryDx=0;entryDy=0;" parent="1" source="vdYyiGhlFjjqDIYG_Mna-24" target="vdYyiGhlFjjqDIYG_Mna-27" edge="1">
          <mxGeometry width="50" height="50" relative="1" as="geometry">
            <mxPoint x="196" y="1002" as="sourcePoint" />
            <mxPoint x="220" y="990" as="targetPoint" />
          </mxGeometry>
        </mxCell>
        <mxCell id="vdYyiGhlFjjqDIYG_Mna-85" value="" style="endArrow=none;html=1;rounded=0;" parent="1" source="vdYyiGhlFjjqDIYG_Mna-26" target="vdYyiGhlFjjqDIYG_Mna-24" edge="1">
          <mxGeometry width="50" height="50" relative="1" as="geometry">
            <mxPoint x="220" y="1095" as="sourcePoint" />
            <mxPoint x="196" y="1092" as="targetPoint" />
          </mxGeometry>
        </mxCell>
        <mxCell id="vdYyiGhlFjjqDIYG_Mna-88" value="" style="endArrow=none;html=1;rounded=0;exitX=1;exitY=0.5;exitDx=0;exitDy=0;shape=link;" parent="1" source="vdYyiGhlFjjqDIYG_Mna-16" target="vdYyiGhlFjjqDIYG_Mna-87" edge="1">
          <mxGeometry width="50" height="50" relative="1" as="geometry">
            <mxPoint x="320" y="760" as="sourcePoint" />
            <mxPoint x="490" y="764" as="targetPoint" />
          </mxGeometry>
        </mxCell>
        <mxCell id="vdYyiGhlFjjqDIYG_Mna-87" value="" style="rhombus;whiteSpace=wrap;html=1;" parent="1" vertex="1">
          <mxGeometry x="375" y="740" width="50" height="50" as="geometry" />
        </mxCell>
        <mxCell id="vdYyiGhlFjjqDIYG_Mna-89" value="start price" style="ellipse;whiteSpace=wrap;html=1;" parent="1" vertex="1">
          <mxGeometry x="349" y="690" width="100" height="50" as="geometry" />
        </mxCell>
        <mxCell id="vdYyiGhlFjjqDIYG_Mna-91" value="" style="endArrow=none;html=1;rounded=0;shape=link;" parent="1" source="vdYyiGhlFjjqDIYG_Mna-52" target="vdYyiGhlFjjqDIYG_Mna-32" edge="1">
          <mxGeometry width="50" height="50" relative="1" as="geometry">
            <mxPoint x="866" y="745" as="sourcePoint" />
            <mxPoint x="865" y="700" as="targetPoint" />
          </mxGeometry>
        </mxCell>
        <mxCell id="vdYyiGhlFjjqDIYG_Mna-92" value="" style="rhombus;whiteSpace=wrap;html=1;" parent="1" vertex="1">
          <mxGeometry x="520" y="925" width="50" height="50" as="geometry" />
        </mxCell>
        <mxCell id="vdYyiGhlFjjqDIYG_Mna-93" value="" style="endArrow=none;html=1;rounded=0;entryX=0.5;entryY=0;entryDx=0;entryDy=0;exitX=0.5;exitY=1;exitDx=0;exitDy=0;" parent="1" source="vdYyiGhlFjjqDIYG_Mna-8" target="vdYyiGhlFjjqDIYG_Mna-92" edge="1">
          <mxGeometry width="50" height="50" relative="1" as="geometry">
            <mxPoint x="620" y="569" as="sourcePoint" />
            <mxPoint x="690" y="569" as="targetPoint" />
          </mxGeometry>
        </mxCell>
        <mxCell id="vdYyiGhlFjjqDIYG_Mna-94" value="" style="endArrow=none;html=1;rounded=0;exitX=0;exitY=0.5;exitDx=0;exitDy=0;shape=link;" parent="1" source="vdYyiGhlFjjqDIYG_Mna-39" target="vdYyiGhlFjjqDIYG_Mna-92" edge="1">
          <mxGeometry width="50" height="50" relative="1" as="geometry">
            <mxPoint x="560" y="600" as="sourcePoint" />
            <mxPoint x="555" y="935" as="targetPoint" />
          </mxGeometry>
        </mxCell>
        <mxCell id="vdYyiGhlFjjqDIYG_Mna-96" value="&lt;u&gt;AuctionId&lt;/u&gt;" style="ellipse;whiteSpace=wrap;html=1;" parent="1" vertex="1">
          <mxGeometry x="927" y="740" width="100" height="50" as="geometry" />
        </mxCell>
        <mxCell id="vdYyiGhlFjjqDIYG_Mna-99" value="" style="endArrow=none;html=1;rounded=0;" parent="1" source="vdYyiGhlFjjqDIYG_Mna-37" target="vdYyiGhlFjjqDIYG_Mna-96" edge="1">
          <mxGeometry width="50" height="50" relative="1" as="geometry">
            <mxPoint x="866" y="745" as="sourcePoint" />
            <mxPoint x="865" y="700" as="targetPoint" />
          </mxGeometry>
        </mxCell>
        <mxCell id="vdYyiGhlFjjqDIYG_Mna-100" value="1" style="text;html=1;strokeColor=none;fillColor=none;align=center;verticalAlign=middle;whiteSpace=wrap;rounded=0;" parent="1" vertex="1">
          <mxGeometry x="349" y="410" width="40" height="20" as="geometry" />
        </mxCell>
        <mxCell id="vdYyiGhlFjjqDIYG_Mna-101" value="1" style="text;html=1;strokeColor=none;fillColor=none;align=center;verticalAlign=middle;whiteSpace=wrap;rounded=0;" parent="1" vertex="1">
          <mxGeometry x="280" y="505" width="40" height="20" as="geometry" />
        </mxCell>
        <mxCell id="vdYyiGhlFjjqDIYG_Mna-102" value="1" style="text;html=1;strokeColor=none;fillColor=none;align=center;verticalAlign=middle;whiteSpace=wrap;rounded=0;" parent="1" vertex="1">
          <mxGeometry x="480" y="505" width="40" height="20" as="geometry" />
        </mxCell>
        <mxCell id="vdYyiGhlFjjqDIYG_Mna-103" value="1" style="text;html=1;strokeColor=none;fillColor=none;align=center;verticalAlign=middle;whiteSpace=wrap;rounded=0;" parent="1" vertex="1">
          <mxGeometry x="255" y="595" width="40" height="20" as="geometry" />
        </mxCell>
        <mxCell id="vdYyiGhlFjjqDIYG_Mna-104" value="M" style="text;html=1;strokeColor=none;fillColor=none;align=center;verticalAlign=middle;whiteSpace=wrap;rounded=0;" parent="1" vertex="1">
          <mxGeometry x="265" y="710" width="40" height="20" as="geometry" />
        </mxCell>
        <mxCell id="vdYyiGhlFjjqDIYG_Mna-105" value="M" style="text;html=1;strokeColor=none;fillColor=none;align=center;verticalAlign=middle;whiteSpace=wrap;rounded=0;" parent="1" vertex="1">
          <mxGeometry x="225" y="800" width="40" height="20" as="geometry" />
        </mxCell>
        <mxCell id="vdYyiGhlFjjqDIYG_Mna-106" value="1" style="text;html=1;strokeColor=none;fillColor=none;align=center;verticalAlign=middle;whiteSpace=wrap;rounded=0;" parent="1" vertex="1">
          <mxGeometry x="225" y="900" width="40" height="20" as="geometry" />
        </mxCell>
        <mxCell id="vdYyiGhlFjjqDIYG_Mna-107" value="M" style="text;html=1;strokeColor=none;fillColor=none;align=center;verticalAlign=middle;whiteSpace=wrap;rounded=0;" parent="1" vertex="1">
          <mxGeometry x="285" y="980" width="40" height="20" as="geometry" />
        </mxCell>
        <mxCell id="vdYyiGhlFjjqDIYG_Mna-108" value="1" style="text;html=1;strokeColor=none;fillColor=none;align=center;verticalAlign=middle;whiteSpace=wrap;rounded=0;" parent="1" vertex="1">
          <mxGeometry x="285" y="1040" width="40" height="20" as="geometry" />
        </mxCell>
        <mxCell id="vdYyiGhlFjjqDIYG_Mna-109" value="1" style="text;html=1;strokeColor=none;fillColor=none;align=center;verticalAlign=middle;whiteSpace=wrap;rounded=0;" parent="1" vertex="1">
          <mxGeometry x="320" y="760" width="40" height="20" as="geometry" />
        </mxCell>
        <mxCell id="vdYyiGhlFjjqDIYG_Mna-110" value="1" style="text;html=1;strokeColor=none;fillColor=none;align=center;verticalAlign=middle;whiteSpace=wrap;rounded=0;" parent="1" vertex="1">
          <mxGeometry x="760" y="775" width="40" height="20" as="geometry" />
        </mxCell>
        <mxCell id="vdYyiGhlFjjqDIYG_Mna-111" value="1" style="text;html=1;strokeColor=none;fillColor=none;align=center;verticalAlign=middle;whiteSpace=wrap;rounded=0;" parent="1" vertex="1">
          <mxGeometry x="850" y="710" width="40" height="20" as="geometry" />
        </mxCell>
        <mxCell id="vdYyiGhlFjjqDIYG_Mna-112" value="M" style="text;html=1;strokeColor=none;fillColor=none;align=center;verticalAlign=middle;whiteSpace=wrap;rounded=0;" parent="1" vertex="1">
          <mxGeometry x="865" y="590" width="40" height="20" as="geometry" />
        </mxCell>
        <mxCell id="vdYyiGhlFjjqDIYG_Mna-113" value="M" style="text;html=1;strokeColor=none;fillColor=none;align=center;verticalAlign=middle;whiteSpace=wrap;rounded=0;" parent="1" vertex="1">
          <mxGeometry x="750" y="575" width="40" height="20" as="geometry" />
        </mxCell>
        <mxCell id="vdYyiGhlFjjqDIYG_Mna-114" value="1" style="text;html=1;strokeColor=none;fillColor=none;align=center;verticalAlign=middle;whiteSpace=wrap;rounded=0;" parent="1" vertex="1">
          <mxGeometry x="603" y="570" width="40" height="20" as="geometry" />
        </mxCell>
        <mxCell id="vdYyiGhlFjjqDIYG_Mna-115" value="1" style="text;html=1;strokeColor=none;fillColor=none;align=center;verticalAlign=middle;whiteSpace=wrap;rounded=0;" parent="1" vertex="1">
          <mxGeometry x="860" y="800" width="40" height="20" as="geometry" />
        </mxCell>
        <mxCell id="vdYyiGhlFjjqDIYG_Mna-116" value="1" style="text;html=1;strokeColor=none;fillColor=none;align=center;verticalAlign=middle;whiteSpace=wrap;rounded=0;" parent="1" vertex="1">
          <mxGeometry x="850" y="900" width="40" height="20" as="geometry" />
        </mxCell>
        <mxCell id="vdYyiGhlFjjqDIYG_Mna-118" value="1" style="text;html=1;strokeColor=none;fillColor=none;align=center;verticalAlign=middle;whiteSpace=wrap;rounded=0;" parent="1" vertex="1">
          <mxGeometry x="750" y="925" width="40" height="20" as="geometry" />
        </mxCell>
        <mxCell id="vdYyiGhlFjjqDIYG_Mna-119" value="1" style="text;html=1;strokeColor=none;fillColor=none;align=center;verticalAlign=middle;whiteSpace=wrap;rounded=0;" parent="1" vertex="1">
          <mxGeometry x="540" y="595" width="40" height="20" as="geometry" />
        </mxCell>
        <mxCell id="Q1eEWZ2AeU7FGbDSciGm-1" value="Wishlist" style="rounded=0;whiteSpace=wrap;html=1;" vertex="1" parent="1">
          <mxGeometry x="449" y="1070" width="120" height="60" as="geometry" />
        </mxCell>
        <mxCell id="Q1eEWZ2AeU7FGbDSciGm-3" value="time wishlisted" style="ellipse;whiteSpace=wrap;html=1;" vertex="1" parent="1">
          <mxGeometry x="590" y="1090" width="100" height="50" as="geometry" />
        </mxCell>
        <mxCell id="Q1eEWZ2AeU7FGbDSciGm-4" value="" style="endArrow=none;html=1;rounded=0;shape=link;" edge="1" parent="1" source="Q1eEWZ2AeU7FGbDSciGm-6" target="Q1eEWZ2AeU7FGbDSciGm-1">
          <mxGeometry width="50" height="50" relative="1" as="geometry">
            <mxPoint x="510" y="610" as="sourcePoint" />
            <mxPoint x="555" y="935" as="targetPoint" />
          </mxGeometry>
        </mxCell>
        <mxCell id="Q1eEWZ2AeU7FGbDSciGm-5" value="" style="endArrow=none;html=1;rounded=0;" edge="1" parent="1" source="Q1eEWZ2AeU7FGbDSciGm-9" target="vdYyiGhlFjjqDIYG_Mna-16">
          <mxGeometry width="50" height="50" relative="1" as="geometry">
            <mxPoint x="620" y="540" as="sourcePoint" />
            <mxPoint x="805" y="400" as="targetPoint" />
          </mxGeometry>
        </mxCell>
        <mxCell id="Q1eEWZ2AeU7FGbDSciGm-7" value="" style="endArrow=none;html=1;rounded=0;exitX=0.173;exitY=0.998;exitDx=0;exitDy=0;exitPerimeter=0;" edge="1" parent="1" source="vdYyiGhlFjjqDIYG_Mna-8" target="Q1eEWZ2AeU7FGbDSciGm-6">
          <mxGeometry width="50" height="50" relative="1" as="geometry">
            <mxPoint x="511" y="590" as="sourcePoint" />
            <mxPoint x="509" y="1070" as="targetPoint" />
          </mxGeometry>
        </mxCell>
        <mxCell id="Q1eEWZ2AeU7FGbDSciGm-6" value="" style="rhombus;whiteSpace=wrap;html=1;" vertex="1" parent="1">
          <mxGeometry x="480" y="850" width="50" height="50" as="geometry" />
        </mxCell>
        <mxCell id="Q1eEWZ2AeU7FGbDSciGm-10" value="" style="endArrow=none;html=1;rounded=0;exitX=0;exitY=0.75;exitDx=0;exitDy=0;shape=link;" edge="1" parent="1" source="Q1eEWZ2AeU7FGbDSciGm-1" target="Q1eEWZ2AeU7FGbDSciGm-9">
          <mxGeometry width="50" height="50" relative="1" as="geometry">
            <mxPoint x="449" y="1115" as="sourcePoint" />
            <mxPoint x="276" y="790" as="targetPoint" />
          </mxGeometry>
        </mxCell>
        <mxCell id="Q1eEWZ2AeU7FGbDSciGm-9" value="" style="rhombus;whiteSpace=wrap;html=1;" vertex="1" parent="1">
          <mxGeometry x="360" y="965" width="50" height="50" as="geometry" />
        </mxCell>
        <mxCell id="Q1eEWZ2AeU7FGbDSciGm-11" value="" style="endArrow=none;html=1;rounded=0;entryX=1;entryY=0.75;entryDx=0;entryDy=0;" edge="1" parent="1" source="Q1eEWZ2AeU7FGbDSciGm-3" target="Q1eEWZ2AeU7FGbDSciGm-1">
          <mxGeometry width="50" height="50" relative="1" as="geometry">
            <mxPoint x="620" y="569" as="sourcePoint" />
            <mxPoint x="690" y="569" as="targetPoint" />
          </mxGeometry>
        </mxCell>
        <mxCell id="Q1eEWZ2AeU7FGbDSciGm-12" value="1" style="text;html=1;strokeColor=none;fillColor=none;align=center;verticalAlign=middle;whiteSpace=wrap;rounded=0;" vertex="1" parent="1">
          <mxGeometry x="463" y="595" width="40" height="20" as="geometry" />
        </mxCell>
        <mxCell id="Q1eEWZ2AeU7FGbDSciGm-13" value="M" style="text;html=1;strokeColor=none;fillColor=none;align=center;verticalAlign=middle;whiteSpace=wrap;rounded=0;" vertex="1" parent="1">
          <mxGeometry x="470" y="1050" width="40" height="20" as="geometry" />
        </mxCell>
        <mxCell id="Q1eEWZ2AeU7FGbDSciGm-14" value="1" style="text;html=1;strokeColor=none;fillColor=none;align=center;verticalAlign=middle;whiteSpace=wrap;rounded=0;" vertex="1" parent="1">
          <mxGeometry x="295" y="800" width="40" height="20" as="geometry" />
        </mxCell>
        <mxCell id="Q1eEWZ2AeU7FGbDSciGm-15" value="M" style="text;html=1;strokeColor=none;fillColor=none;align=center;verticalAlign=middle;whiteSpace=wrap;rounded=0;" vertex="1" parent="1">
          <mxGeometry x="425" y="1040" width="40" height="20" as="geometry" />
        </mxCell>
      </root>
    </mxGraphModel>
  </diagram>
</mxfile>
